<mxfile host="app.diagrams.net" agent="Mozilla/5.0 (Windows NT 10.0; Win64; x64) AppleWebKit/537.36 (KHTML, like Gecko) Chrome/130.0.0.0 Safari/537.36" version="24.8.4">
  <diagram id="6a731a19-8d31-9384-78a2-239565b7b9f0" name="Page-1">
    <mxGraphModel dx="1221" dy="725" grid="1" gridSize="10" guides="1" tooltips="1" connect="1" arrows="1" fold="1" page="1" pageScale="1" pageWidth="1169" pageHeight="827" background="none" math="0" shadow="0">
      <root>
        <mxCell id="0" />
        <mxCell id="1" parent="0" />
        <mxCell id="Y3oSdbgFbH8ANZuMdnU9-1774" value="- 객체 추출" style="text;html=1;align=left;verticalAlign=top;whiteSpace=wrap;rounded=0;" parent="1" vertex="1">
          <mxGeometry x="1000" y="480" width="220" height="30" as="geometry" />
        </mxCell>
        <mxCell id="eiP74IhkcyLnccZgrI5i-1815" value="P-House C++" style="rounded=1;whiteSpace=wrap;html=1;shadow=0;labelBackgroundColor=none;strokeColor=none;strokeWidth=3;fillColor=#ffe6cc;fontFamily=Helvetica;fontSize=14;align=center;spacing=5;fontStyle=1;arcSize=7;perimeterSpacing=2;verticalAlign=top;" parent="1" vertex="1">
          <mxGeometry x="720" y="1040" width="200" height="40" as="geometry" />
        </mxCell>
        <mxCell id="eiP74IhkcyLnccZgrI5i-1816" value="- 탈 유니티&lt;br&gt;- 담당자 : 형주" style="text;html=1;align=left;verticalAlign=top;whiteSpace=wrap;rounded=0;" parent="1" vertex="1">
          <mxGeometry x="730" y="1080" width="220" height="30" as="geometry" />
        </mxCell>
        <mxCell id="eiP74IhkcyLnccZgrI5i-1818" value="&lt;div&gt;- 담당자 : 현준&lt;/div&gt;" style="text;html=1;align=left;verticalAlign=top;whiteSpace=wrap;rounded=0;" parent="1" vertex="1">
          <mxGeometry x="730" y="600" width="220" height="30" as="geometry" />
        </mxCell>
        <mxCell id="1749" value="P-Engine V.1.1" style="rounded=1;whiteSpace=wrap;html=1;shadow=0;labelBackgroundColor=none;strokeColor=none;strokeWidth=3;fillColor=#f5f5f5;fontFamily=Helvetica;fontSize=16;fontColor=#333333;align=center;fontStyle=1;spacing=5;arcSize=7;perimeterSpacing=2;verticalAlign=top;" parent="1" vertex="1">
          <mxGeometry x="440" y="440" width="160" height="40" as="geometry" />
        </mxCell>
        <mxCell id="1753" value="P-House Android V.1.0" style="rounded=1;whiteSpace=wrap;html=1;shadow=0;labelBackgroundColor=none;strokeColor=#FF0000;strokeWidth=3;fillColor=#ffe6cc;fontFamily=Helvetica;fontSize=14;align=center;spacing=5;fontStyle=1;arcSize=7;perimeterSpacing=2;verticalAlign=top;" parent="1" vertex="1">
          <mxGeometry x="440" y="1040" width="200" height="40" as="geometry" />
        </mxCell>
        <mxCell id="1760" value="Homepage V.1.2" style="rounded=1;whiteSpace=wrap;html=1;shadow=0;labelBackgroundColor=none;strokeColor=none;strokeWidth=3;fillColor=#d5e8d4;fontFamily=Helvetica;fontSize=14;align=center;spacing=5;fontStyle=1;arcSize=7;perimeterSpacing=2;verticalAlign=top;" parent="1" vertex="1">
          <mxGeometry x="720" y="880" width="160" height="40" as="geometry" />
        </mxCell>
        <mxCell id="1764" value="Hestia" style="rounded=1;whiteSpace=wrap;html=1;shadow=0;labelBackgroundColor=none;strokeColor=none;strokeWidth=3;fillColor=#fff2cc;fontFamily=Helvetica;fontSize=14;align=center;spacing=5;fontStyle=1;arcSize=7;perimeterSpacing=2;verticalAlign=top;" parent="1" vertex="1">
          <mxGeometry x="720" y="1290" width="80" height="40" as="geometry" />
        </mxCell>
        <mxCell id="1771" value="PtoM V.1.0" style="rounded=1;whiteSpace=wrap;html=1;shadow=0;labelBackgroundColor=none;strokeColor=#FF0000;strokeWidth=3;fillColor=#dae8fc;fontFamily=Helvetica;fontSize=14;align=center;spacing=5;fontStyle=1;arcSize=7;perimeterSpacing=2;verticalAlign=top;" parent="1" vertex="1">
          <mxGeometry x="440" y="680" width="120" height="40" as="geometry" />
        </mxCell>
        <mxCell id="eiP74IhkcyLnccZgrI5i-1780" value="- 데모용&lt;div&gt;- 담당자 : 송미, 예찬, 준석, 현진&lt;/div&gt;" style="text;html=1;align=left;verticalAlign=top;whiteSpace=wrap;rounded=0;" parent="1" vertex="1">
          <mxGeometry x="450" y="480" width="220" height="30" as="geometry" />
        </mxCell>
        <mxCell id="eiP74IhkcyLnccZgrI5i-1781" value="- 데모용(PtoM)&lt;div&gt;- 담당자 : 현준, 서영&lt;/div&gt;" style="text;html=1;align=left;verticalAlign=top;whiteSpace=wrap;rounded=0;" parent="1" vertex="1">
          <mxGeometry x="450" y="720" width="220" height="30" as="geometry" />
        </mxCell>
        <mxCell id="eiP74IhkcyLnccZgrI5i-1782" value="- 오프라인 버전&lt;div&gt;- 데모용&lt;div&gt;- 담당자 : 형주&lt;/div&gt;&lt;/div&gt;" style="text;html=1;align=left;verticalAlign=top;whiteSpace=wrap;rounded=0;" parent="1" vertex="1">
          <mxGeometry x="450" y="1080" width="220" height="50" as="geometry" />
        </mxCell>
        <mxCell id="eiP74IhkcyLnccZgrI5i-1783" value="P-Engine V.1.4" style="rounded=1;whiteSpace=wrap;html=1;shadow=0;labelBackgroundColor=none;strokeColor=#FF0000;strokeWidth=3;fillColor=#f5f5f5;fontFamily=Helvetica;fontSize=16;fontColor=#333333;align=center;fontStyle=1;spacing=5;arcSize=7;perimeterSpacing=2;verticalAlign=top;" parent="1" vertex="1">
          <mxGeometry x="1280" y="440" width="160" height="40" as="geometry" />
        </mxCell>
        <mxCell id="eiP74IhkcyLnccZgrI5i-1784" value="- 첫 cad 이용 가능 버전&lt;div&gt;- 담당자 : 준혁&lt;/div&gt;" style="text;html=1;align=left;verticalAlign=top;whiteSpace=wrap;rounded=0;" parent="1" vertex="1">
          <mxGeometry x="1290" y="480" width="220" height="30" as="geometry" />
        </mxCell>
        <mxCell id="eiP74IhkcyLnccZgrI5i-1785" value="P-Engine V.1.2" style="rounded=1;whiteSpace=wrap;html=1;shadow=0;labelBackgroundColor=none;strokeColor=#FF0000;strokeWidth=3;fillColor=#f5f5f5;fontFamily=Helvetica;fontSize=16;fontColor=#333333;align=center;fontStyle=1;spacing=5;arcSize=7;perimeterSpacing=2;verticalAlign=top;" parent="1" vertex="1">
          <mxGeometry x="720" y="440" width="160" height="40" as="geometry" />
        </mxCell>
        <mxCell id="eiP74IhkcyLnccZgrI5i-1786" value="- 첫 대용량 메모리 대응 가능 버전&lt;div&gt;- 담장자 : 현진&lt;/div&gt;" style="text;html=1;align=left;verticalAlign=top;whiteSpace=wrap;rounded=0;" parent="1" vertex="1">
          <mxGeometry x="730" y="480" width="220" height="30" as="geometry" />
        </mxCell>
        <mxCell id="eiP74IhkcyLnccZgrI5i-1787" value="P-Engine V.1.3" style="rounded=1;whiteSpace=wrap;html=1;shadow=0;labelBackgroundColor=none;strokeColor=none;strokeWidth=3;fillColor=#f5f5f5;fontFamily=Helvetica;fontSize=16;fontColor=#333333;align=center;fontStyle=1;spacing=5;arcSize=7;perimeterSpacing=2;verticalAlign=top;" parent="1" vertex="1">
          <mxGeometry x="1000" y="440" width="160" height="40" as="geometry" />
        </mxCell>
        <mxCell id="eiP74IhkcyLnccZgrI5i-1789" value="PtoM V.1.1" style="rounded=1;whiteSpace=wrap;html=1;shadow=0;labelBackgroundColor=none;strokeColor=none;strokeWidth=3;fillColor=#dae8fc;fontFamily=Helvetica;fontSize=14;align=center;spacing=5;fontStyle=1;arcSize=7;perimeterSpacing=2;verticalAlign=top;" parent="1" vertex="1">
          <mxGeometry x="1280" y="680" width="120" height="40" as="geometry" />
        </mxCell>
        <mxCell id="eiP74IhkcyLnccZgrI5i-1790" value="- 온라인 결제 가능 버전" style="text;html=1;align=left;verticalAlign=top;whiteSpace=wrap;rounded=0;" parent="1" vertex="1">
          <mxGeometry x="1290" y="720" width="220" height="30" as="geometry" />
        </mxCell>
        <mxCell id="eiP74IhkcyLnccZgrI5i-1791" value="StoM V.1.0" style="rounded=1;whiteSpace=wrap;html=1;shadow=0;labelBackgroundColor=none;strokeColor=#FF0000;strokeWidth=3;fillColor=#dae8fc;fontFamily=Helvetica;fontSize=14;align=center;spacing=5;fontStyle=1;arcSize=7;perimeterSpacing=2;verticalAlign=top;" parent="1" vertex="1">
          <mxGeometry x="440" y="800" width="120" height="40" as="geometry" />
        </mxCell>
        <mxCell id="eiP74IhkcyLnccZgrI5i-1792" value="- 담당자 : 현준, 서영" style="text;html=1;align=left;verticalAlign=top;whiteSpace=wrap;rounded=0;" parent="1" vertex="1">
          <mxGeometry x="450" y="840" width="220" height="30" as="geometry" />
        </mxCell>
        <mxCell id="eiP74IhkcyLnccZgrI5i-1793" value="- 현 버전에서 리펙토링&lt;div&gt;&lt;div&gt;- 담당자 : 서영&lt;/div&gt;&lt;/div&gt;" style="text;html=1;align=left;verticalAlign=top;whiteSpace=wrap;rounded=0;" parent="1" vertex="1">
          <mxGeometry x="730" y="920" width="220" height="50" as="geometry" />
        </mxCell>
        <mxCell id="eiP74IhkcyLnccZgrI5i-1794" value="- pssw 간편화 작업&lt;div&gt;&lt;div&gt;- 담당자 : 형주&lt;/div&gt;&lt;/div&gt;" style="text;html=1;align=left;verticalAlign=top;whiteSpace=wrap;rounded=0;" parent="1" vertex="1">
          <mxGeometry x="730" y="1330" width="220" height="50" as="geometry" />
        </mxCell>
        <mxCell id="eiP74IhkcyLnccZgrI5i-1797" value="" style="rounded=0;whiteSpace=wrap;html=1;opacity=75;strokeColor=none;" parent="1" vertex="1">
          <mxGeometry x="990" y="414" width="230" height="100" as="geometry" />
        </mxCell>
        <mxCell id="eiP74IhkcyLnccZgrI5i-1798" value="" style="rounded=0;whiteSpace=wrap;html=1;opacity=75;strokeColor=none;" parent="1" vertex="1">
          <mxGeometry x="700" y="860" width="250" height="100" as="geometry" />
        </mxCell>
        <mxCell id="eiP74IhkcyLnccZgrI5i-1799" value="" style="rounded=0;whiteSpace=wrap;html=1;opacity=75;strokeColor=none;" parent="1" vertex="1">
          <mxGeometry x="695" y="995" width="250" height="370" as="geometry" />
        </mxCell>
        <mxCell id="eiP74IhkcyLnccZgrI5i-1800" value="" style="rounded=0;whiteSpace=wrap;html=1;opacity=75;strokeColor=none;" parent="1" vertex="1">
          <mxGeometry x="1275" y="660" width="250" height="100" as="geometry" />
        </mxCell>
        <mxCell id="eiP74IhkcyLnccZgrI5i-1801" value="P-Engine Web" style="rounded=1;whiteSpace=wrap;html=1;shadow=0;labelBackgroundColor=none;strokeColor=none;strokeWidth=3;fillColor=#f5f5f5;fontFamily=Helvetica;fontSize=16;fontColor=#333333;align=center;fontStyle=1;spacing=5;arcSize=7;perimeterSpacing=2;verticalAlign=top;" parent="1" vertex="1">
          <mxGeometry x="720" y="560" width="160" height="40" as="geometry" />
        </mxCell>
        <mxCell id="eiP74IhkcyLnccZgrI5i-1802" value="" style="rounded=0;whiteSpace=wrap;html=1;opacity=75;strokeColor=none;" parent="1" vertex="1">
          <mxGeometry x="700" y="540" width="250" height="100" as="geometry" />
        </mxCell>
        <mxCell id="eiP74IhkcyLnccZgrI5i-1803" value="&lt;b&gt;우선순위&amp;nbsp;&lt;/b&gt;" style="text;html=1;align=left;verticalAlign=top;whiteSpace=wrap;rounded=0;fontSize=24;" parent="1" vertex="1">
          <mxGeometry x="280" y="320" width="220" height="30" as="geometry" />
        </mxCell>
        <mxCell id="eiP74IhkcyLnccZgrI5i-1804" value="" style="endArrow=none;dashed=1;html=1;rounded=0;" parent="1" edge="1">
          <mxGeometry width="50" height="50" relative="1" as="geometry">
            <mxPoint x="680" y="1440" as="sourcePoint" />
            <mxPoint x="680" y="320" as="targetPoint" />
          </mxGeometry>
        </mxCell>
        <mxCell id="eiP74IhkcyLnccZgrI5i-1805" value="" style="endArrow=none;dashed=1;html=1;rounded=0;" parent="1" edge="1">
          <mxGeometry width="50" height="50" relative="1" as="geometry">
            <mxPoint x="960" y="1440" as="sourcePoint" />
            <mxPoint x="960" y="320" as="targetPoint" />
          </mxGeometry>
        </mxCell>
        <mxCell id="eiP74IhkcyLnccZgrI5i-1806" value="" style="endArrow=none;dashed=1;html=1;rounded=0;" parent="1" edge="1">
          <mxGeometry width="50" height="50" relative="1" as="geometry">
            <mxPoint x="1240" y="1440" as="sourcePoint" />
            <mxPoint x="1240" y="320" as="targetPoint" />
          </mxGeometry>
        </mxCell>
        <mxCell id="eiP74IhkcyLnccZgrI5i-1807" value="&lt;b&gt;1&lt;/b&gt;" style="text;html=1;align=left;verticalAlign=top;whiteSpace=wrap;rounded=0;fontSize=24;" parent="1" vertex="1">
          <mxGeometry x="440" y="320" width="220" height="30" as="geometry" />
        </mxCell>
        <mxCell id="eiP74IhkcyLnccZgrI5i-1809" value="&lt;b&gt;2&lt;/b&gt;" style="text;html=1;align=left;verticalAlign=top;whiteSpace=wrap;rounded=0;fontSize=24;" parent="1" vertex="1">
          <mxGeometry x="720" y="320" width="220" height="30" as="geometry" />
        </mxCell>
        <mxCell id="eiP74IhkcyLnccZgrI5i-1810" value="ON PROGRESS" style="rounded=1;whiteSpace=wrap;html=1;shadow=0;labelBackgroundColor=none;strokeColor=#FF0000;strokeWidth=3;fillColor=#f5f5f5;fontFamily=Helvetica;fontSize=16;fontColor=#333333;align=center;fontStyle=1;spacing=5;arcSize=7;perimeterSpacing=2;verticalAlign=top;" parent="1" vertex="1">
          <mxGeometry x="280" y="120" width="160" height="40" as="geometry" />
        </mxCell>
        <mxCell id="eiP74IhkcyLnccZgrI5i-1811" value="TODO" style="rounded=1;whiteSpace=wrap;html=1;shadow=0;labelBackgroundColor=none;strokeColor=none;strokeWidth=3;fillColor=#f5f5f5;fontFamily=Helvetica;fontSize=16;fontColor=#333333;align=center;fontStyle=1;spacing=5;arcSize=7;perimeterSpacing=2;verticalAlign=top;" parent="1" vertex="1">
          <mxGeometry x="280" y="200" width="160" height="40" as="geometry" />
        </mxCell>
        <mxCell id="eiP74IhkcyLnccZgrI5i-1812" value="" style="rounded=0;whiteSpace=wrap;html=1;opacity=75;strokeColor=none;" parent="1" vertex="1">
          <mxGeometry x="235" y="170" width="250" height="100" as="geometry" />
        </mxCell>
        <mxCell id="eiP74IhkcyLnccZgrI5i-1813" value="&lt;b&gt;3&lt;/b&gt;" style="text;html=1;align=left;verticalAlign=top;whiteSpace=wrap;rounded=0;fontSize=24;" parent="1" vertex="1">
          <mxGeometry x="1000" y="320" width="220" height="30" as="geometry" />
        </mxCell>
        <mxCell id="eiP74IhkcyLnccZgrI5i-1814" value="&lt;b&gt;4&lt;/b&gt;" style="text;html=1;align=left;verticalAlign=top;whiteSpace=wrap;rounded=0;fontSize=24;" parent="1" vertex="1">
          <mxGeometry x="1280" y="320" width="220" height="30" as="geometry" />
        </mxCell>
        <mxCell id="eiP74IhkcyLnccZgrI5i-1817" value="P-House iOS V.1.0" style="rounded=1;whiteSpace=wrap;html=1;shadow=0;labelBackgroundColor=none;strokeColor=none;strokeWidth=3;fillColor=#ffe6cc;fontFamily=Helvetica;fontSize=14;align=center;spacing=5;fontStyle=1;arcSize=7;perimeterSpacing=2;verticalAlign=top;" parent="1" vertex="1">
          <mxGeometry x="1000" y="1160" width="200" height="40" as="geometry" />
        </mxCell>
        <mxCell id="eiP74IhkcyLnccZgrI5i-1819" value="" style="rounded=0;whiteSpace=wrap;html=1;opacity=75;strokeColor=none;" parent="1" vertex="1">
          <mxGeometry x="975" y="1020" width="250" height="240" as="geometry" />
        </mxCell>
        <mxCell id="Y3oSdbgFbH8ANZuMdnU9-1771" value="DONE" style="rounded=1;whiteSpace=wrap;html=1;shadow=0;labelBackgroundColor=none;strokeColor=none;strokeWidth=3;fillColor=#f5f5f5;fontFamily=Helvetica;fontSize=16;fontColor=#333333;align=center;fontStyle=1;spacing=5;arcSize=7;perimeterSpacing=2;verticalAlign=top;" parent="1" vertex="1">
          <mxGeometry x="280" y="40" width="160" height="40" as="geometry" />
        </mxCell>
      </root>
    </mxGraphModel>
  </diagram>
</mxfile>
